<mxfile host="app.diagrams.net" modified="2023-11-15T10:45:35.996Z" agent="Mozilla/5.0 (Windows NT 10.0; Win64; x64) AppleWebKit/537.36 (KHTML, like Gecko) Chrome/119.0.0.0 Safari/537.36" etag="EbpXICfKbZE4hA_3JeLT" version="22.1.1" type="device">
  <diagram name="Страница — 1" id="CIYNl78_ofpNrRi8DAdd">
    <mxGraphModel dx="2415" dy="864" grid="1" gridSize="10" guides="1" tooltips="1" connect="1" arrows="1" fold="1" page="1" pageScale="1" pageWidth="827" pageHeight="1169" math="1" shadow="0">
      <root>
        <mxCell id="0" />
        <mxCell id="1" parent="0" />
        <mxCell id="MWblGbt0A6R_D5Wpe92k-3" value="$$\begin{cases}&lt;br&gt;\begin{align}&lt;br&gt;&amp;amp;\dot{x}=-10x+10y\\&lt;br&gt;&amp;amp;\dot{y} = 28x - y - xz\\&lt;br&gt;&amp;amp;\dot{z}=-2.7z-xy&lt;br&gt;\end{align}\end{cases}$$" style="rounded=0;whiteSpace=wrap;html=1;" vertex="1" parent="1">
          <mxGeometry x="300" y="80" width="180" height="80" as="geometry" />
        </mxCell>
        <mxCell id="MWblGbt0A6R_D5Wpe92k-4" value="" style="shape=table;startSize=0;container=1;collapsible=0;childLayout=tableLayout;fontSize=16;fillColor=#fff2cc;strokeColor=#d6b656;fontColor=#D6B656;" vertex="1" parent="1">
          <mxGeometry x="110" y="230" width="180" height="57" as="geometry" />
        </mxCell>
        <mxCell id="MWblGbt0A6R_D5Wpe92k-5" value="" style="shape=tableRow;horizontal=0;startSize=0;swimlaneHead=0;swimlaneBody=0;strokeColor=inherit;top=0;left=0;bottom=0;right=0;collapsible=0;dropTarget=0;fillColor=none;points=[[0,0.5],[1,0.5]];portConstraint=eastwest;fontSize=16;" vertex="1" parent="MWblGbt0A6R_D5Wpe92k-4">
          <mxGeometry width="180" height="57" as="geometry" />
        </mxCell>
        <mxCell id="MWblGbt0A6R_D5Wpe92k-6" value="$$H_1$$" style="shape=partialRectangle;html=1;whiteSpace=wrap;connectable=0;strokeColor=inherit;overflow=hidden;fillColor=none;top=0;left=0;bottom=0;right=0;pointerEvents=1;fontSize=16;fontColor=#D6B656;" vertex="1" parent="MWblGbt0A6R_D5Wpe92k-5">
          <mxGeometry width="60" height="57" as="geometry">
            <mxRectangle width="60" height="57" as="alternateBounds" />
          </mxGeometry>
        </mxCell>
        <mxCell id="MWblGbt0A6R_D5Wpe92k-7" value="$$H_2$$" style="shape=partialRectangle;html=1;whiteSpace=wrap;connectable=0;strokeColor=inherit;overflow=hidden;fillColor=none;top=0;left=0;bottom=0;right=0;pointerEvents=1;fontSize=16;fontColor=#D6B656;" vertex="1" parent="MWblGbt0A6R_D5Wpe92k-5">
          <mxGeometry x="60" width="60" height="57" as="geometry">
            <mxRectangle width="60" height="57" as="alternateBounds" />
          </mxGeometry>
        </mxCell>
        <mxCell id="MWblGbt0A6R_D5Wpe92k-8" value="$$H_3$$" style="shape=partialRectangle;html=1;whiteSpace=wrap;connectable=0;strokeColor=inherit;overflow=hidden;fillColor=none;top=0;left=0;bottom=0;right=0;pointerEvents=1;fontSize=16;fontColor=#D6B656;" vertex="1" parent="MWblGbt0A6R_D5Wpe92k-5">
          <mxGeometry x="120" width="60" height="57" as="geometry">
            <mxRectangle width="60" height="57" as="alternateBounds" />
          </mxGeometry>
        </mxCell>
        <mxCell id="MWblGbt0A6R_D5Wpe92k-17" value="" style="shape=table;startSize=0;container=1;collapsible=0;childLayout=tableLayout;fontSize=16;fillColor=#f8cecc;strokeColor=#b85450;" vertex="1" parent="1">
          <mxGeometry x="480" y="230" width="180" height="57" as="geometry" />
        </mxCell>
        <mxCell id="MWblGbt0A6R_D5Wpe92k-18" value="" style="shape=tableRow;horizontal=0;startSize=0;swimlaneHead=0;swimlaneBody=0;strokeColor=inherit;top=0;left=0;bottom=0;right=0;collapsible=0;dropTarget=0;fillColor=none;points=[[0,0.5],[1,0.5]];portConstraint=eastwest;fontSize=16;" vertex="1" parent="MWblGbt0A6R_D5Wpe92k-17">
          <mxGeometry width="180" height="57" as="geometry" />
        </mxCell>
        <mxCell id="MWblGbt0A6R_D5Wpe92k-19" value="$$T_1$$" style="shape=partialRectangle;html=1;whiteSpace=wrap;connectable=0;strokeColor=inherit;overflow=hidden;fillColor=none;top=0;left=0;bottom=0;right=0;pointerEvents=1;fontSize=16;fontColor=#B85450;" vertex="1" parent="MWblGbt0A6R_D5Wpe92k-18">
          <mxGeometry width="60" height="57" as="geometry">
            <mxRectangle width="60" height="57" as="alternateBounds" />
          </mxGeometry>
        </mxCell>
        <mxCell id="MWblGbt0A6R_D5Wpe92k-20" value="$$T_2$$" style="shape=partialRectangle;html=1;whiteSpace=wrap;connectable=0;strokeColor=inherit;overflow=hidden;fillColor=none;top=0;left=0;bottom=0;right=0;pointerEvents=1;fontSize=16;fontColor=#B85450;" vertex="1" parent="MWblGbt0A6R_D5Wpe92k-18">
          <mxGeometry x="60" width="60" height="57" as="geometry">
            <mxRectangle width="60" height="57" as="alternateBounds" />
          </mxGeometry>
        </mxCell>
        <mxCell id="MWblGbt0A6R_D5Wpe92k-21" value="$$T_3$$" style="shape=partialRectangle;html=1;whiteSpace=wrap;connectable=0;strokeColor=inherit;overflow=hidden;fillColor=none;top=0;left=0;bottom=0;right=0;pointerEvents=1;fontSize=16;fontColor=#B85450;" vertex="1" parent="MWblGbt0A6R_D5Wpe92k-18">
          <mxGeometry x="120" width="60" height="57" as="geometry">
            <mxRectangle width="60" height="57" as="alternateBounds" />
          </mxGeometry>
        </mxCell>
        <mxCell id="MWblGbt0A6R_D5Wpe92k-24" value="$$H$$" style="text;html=1;strokeColor=none;fillColor=none;align=center;verticalAlign=middle;whiteSpace=wrap;rounded=0;" vertex="1" parent="1">
          <mxGeometry x="170" y="200" width="60" height="30" as="geometry" />
        </mxCell>
        <mxCell id="MWblGbt0A6R_D5Wpe92k-30" value="$$T$$" style="text;html=1;strokeColor=none;fillColor=none;align=center;verticalAlign=middle;whiteSpace=wrap;rounded=0;" vertex="1" parent="1">
          <mxGeometry x="540" y="200" width="60" height="30" as="geometry" />
        </mxCell>
        <mxCell id="MWblGbt0A6R_D5Wpe92k-31" value="" style="shape=table;startSize=0;container=1;collapsible=0;childLayout=tableLayout;fontSize=16;fillColor=#d5e8d4;strokeColor=#82b366;" vertex="1" parent="1">
          <mxGeometry x="120" y="320" width="40" height="100" as="geometry" />
        </mxCell>
        <mxCell id="MWblGbt0A6R_D5Wpe92k-36" style="shape=tableRow;horizontal=0;startSize=0;swimlaneHead=0;swimlaneBody=0;strokeColor=inherit;top=0;left=0;bottom=0;right=0;collapsible=0;dropTarget=0;fillColor=none;points=[[0,0.5],[1,0.5]];portConstraint=eastwest;fontSize=16;" vertex="1" parent="MWblGbt0A6R_D5Wpe92k-31">
          <mxGeometry width="40" height="50" as="geometry" />
        </mxCell>
        <mxCell id="MWblGbt0A6R_D5Wpe92k-37" value="-10" style="shape=partialRectangle;html=1;whiteSpace=wrap;connectable=0;strokeColor=inherit;overflow=hidden;fillColor=none;top=0;left=0;bottom=0;right=0;pointerEvents=1;fontSize=16;" vertex="1" parent="MWblGbt0A6R_D5Wpe92k-36">
          <mxGeometry width="40" height="50" as="geometry">
            <mxRectangle width="40" height="50" as="alternateBounds" />
          </mxGeometry>
        </mxCell>
        <mxCell id="MWblGbt0A6R_D5Wpe92k-32" value="" style="shape=tableRow;horizontal=0;startSize=0;swimlaneHead=0;swimlaneBody=0;strokeColor=inherit;top=0;left=0;bottom=0;right=0;collapsible=0;dropTarget=0;fillColor=none;points=[[0,0.5],[1,0.5]];portConstraint=eastwest;fontSize=16;" vertex="1" parent="MWblGbt0A6R_D5Wpe92k-31">
          <mxGeometry y="50" width="40" height="50" as="geometry" />
        </mxCell>
        <mxCell id="MWblGbt0A6R_D5Wpe92k-33" value="10" style="shape=partialRectangle;html=1;whiteSpace=wrap;connectable=0;strokeColor=inherit;overflow=hidden;fillColor=none;top=0;left=0;bottom=0;right=0;pointerEvents=1;fontSize=16;" vertex="1" parent="MWblGbt0A6R_D5Wpe92k-32">
          <mxGeometry width="40" height="50" as="geometry">
            <mxRectangle width="40" height="50" as="alternateBounds" />
          </mxGeometry>
        </mxCell>
        <mxCell id="MWblGbt0A6R_D5Wpe92k-40" value="" style="shape=table;startSize=0;container=1;collapsible=0;childLayout=tableLayout;fontSize=16;fillColor=#d5e8d4;strokeColor=#82b366;" vertex="1" parent="1">
          <mxGeometry x="180" y="320" width="40" height="150" as="geometry" />
        </mxCell>
        <mxCell id="MWblGbt0A6R_D5Wpe92k-41" style="shape=tableRow;horizontal=0;startSize=0;swimlaneHead=0;swimlaneBody=0;strokeColor=inherit;top=0;left=0;bottom=0;right=0;collapsible=0;dropTarget=0;fillColor=none;points=[[0,0.5],[1,0.5]];portConstraint=eastwest;fontSize=16;" vertex="1" parent="MWblGbt0A6R_D5Wpe92k-40">
          <mxGeometry width="40" height="50" as="geometry" />
        </mxCell>
        <mxCell id="MWblGbt0A6R_D5Wpe92k-42" value="28" style="shape=partialRectangle;html=1;whiteSpace=wrap;connectable=0;strokeColor=inherit;overflow=hidden;fillColor=none;top=0;left=0;bottom=0;right=0;pointerEvents=1;fontSize=16;" vertex="1" parent="MWblGbt0A6R_D5Wpe92k-41">
          <mxGeometry width="40" height="50" as="geometry">
            <mxRectangle width="40" height="50" as="alternateBounds" />
          </mxGeometry>
        </mxCell>
        <mxCell id="MWblGbt0A6R_D5Wpe92k-43" value="" style="shape=tableRow;horizontal=0;startSize=0;swimlaneHead=0;swimlaneBody=0;strokeColor=inherit;top=0;left=0;bottom=0;right=0;collapsible=0;dropTarget=0;fillColor=none;points=[[0,0.5],[1,0.5]];portConstraint=eastwest;fontSize=16;" vertex="1" parent="MWblGbt0A6R_D5Wpe92k-40">
          <mxGeometry y="50" width="40" height="50" as="geometry" />
        </mxCell>
        <mxCell id="MWblGbt0A6R_D5Wpe92k-44" value="-1" style="shape=partialRectangle;html=1;whiteSpace=wrap;connectable=0;strokeColor=inherit;overflow=hidden;fillColor=none;top=0;left=0;bottom=0;right=0;pointerEvents=1;fontSize=16;" vertex="1" parent="MWblGbt0A6R_D5Wpe92k-43">
          <mxGeometry width="40" height="50" as="geometry">
            <mxRectangle width="40" height="50" as="alternateBounds" />
          </mxGeometry>
        </mxCell>
        <mxCell id="MWblGbt0A6R_D5Wpe92k-52" style="shape=tableRow;horizontal=0;startSize=0;swimlaneHead=0;swimlaneBody=0;strokeColor=inherit;top=0;left=0;bottom=0;right=0;collapsible=0;dropTarget=0;fillColor=none;points=[[0,0.5],[1,0.5]];portConstraint=eastwest;fontSize=16;" vertex="1" parent="MWblGbt0A6R_D5Wpe92k-40">
          <mxGeometry y="100" width="40" height="50" as="geometry" />
        </mxCell>
        <mxCell id="MWblGbt0A6R_D5Wpe92k-53" value="-1" style="shape=partialRectangle;html=1;whiteSpace=wrap;connectable=0;strokeColor=inherit;overflow=hidden;fillColor=none;top=0;left=0;bottom=0;right=0;pointerEvents=1;fontSize=16;" vertex="1" parent="MWblGbt0A6R_D5Wpe92k-52">
          <mxGeometry width="40" height="50" as="geometry">
            <mxRectangle width="40" height="50" as="alternateBounds" />
          </mxGeometry>
        </mxCell>
        <mxCell id="MWblGbt0A6R_D5Wpe92k-45" value="" style="shape=table;startSize=0;container=1;collapsible=0;childLayout=tableLayout;fontSize=16;fillColor=#d5e8d4;strokeColor=#82b366;" vertex="1" parent="1">
          <mxGeometry x="240" y="320" width="40" height="100" as="geometry" />
        </mxCell>
        <mxCell id="MWblGbt0A6R_D5Wpe92k-46" style="shape=tableRow;horizontal=0;startSize=0;swimlaneHead=0;swimlaneBody=0;strokeColor=inherit;top=0;left=0;bottom=0;right=0;collapsible=0;dropTarget=0;fillColor=none;points=[[0,0.5],[1,0.5]];portConstraint=eastwest;fontSize=16;" vertex="1" parent="MWblGbt0A6R_D5Wpe92k-45">
          <mxGeometry width="40" height="50" as="geometry" />
        </mxCell>
        <mxCell id="MWblGbt0A6R_D5Wpe92k-47" value="-2.7" style="shape=partialRectangle;html=1;whiteSpace=wrap;connectable=0;strokeColor=inherit;overflow=hidden;fillColor=none;top=0;left=0;bottom=0;right=0;pointerEvents=1;fontSize=16;" vertex="1" parent="MWblGbt0A6R_D5Wpe92k-46">
          <mxGeometry width="40" height="50" as="geometry">
            <mxRectangle width="40" height="50" as="alternateBounds" />
          </mxGeometry>
        </mxCell>
        <mxCell id="MWblGbt0A6R_D5Wpe92k-48" value="" style="shape=tableRow;horizontal=0;startSize=0;swimlaneHead=0;swimlaneBody=0;strokeColor=inherit;top=0;left=0;bottom=0;right=0;collapsible=0;dropTarget=0;fillColor=none;points=[[0,0.5],[1,0.5]];portConstraint=eastwest;fontSize=16;" vertex="1" parent="MWblGbt0A6R_D5Wpe92k-45">
          <mxGeometry y="50" width="40" height="50" as="geometry" />
        </mxCell>
        <mxCell id="MWblGbt0A6R_D5Wpe92k-49" value="-1" style="shape=partialRectangle;html=1;whiteSpace=wrap;connectable=0;strokeColor=inherit;overflow=hidden;fillColor=none;top=0;left=0;bottom=0;right=0;pointerEvents=1;fontSize=16;" vertex="1" parent="MWblGbt0A6R_D5Wpe92k-48">
          <mxGeometry width="40" height="50" as="geometry">
            <mxRectangle width="40" height="50" as="alternateBounds" />
          </mxGeometry>
        </mxCell>
        <mxCell id="MWblGbt0A6R_D5Wpe92k-58" value="" style="endArrow=classic;html=1;rounded=0;entryX=0.489;entryY=0.026;entryDx=0;entryDy=0;entryPerimeter=0;exitX=0.165;exitY=0.984;exitDx=0;exitDy=0;exitPerimeter=0;" edge="1" parent="1" source="MWblGbt0A6R_D5Wpe92k-5" target="MWblGbt0A6R_D5Wpe92k-36">
          <mxGeometry width="50" height="50" relative="1" as="geometry">
            <mxPoint x="139" y="290" as="sourcePoint" />
            <mxPoint x="340" y="220" as="targetPoint" />
          </mxGeometry>
        </mxCell>
        <mxCell id="MWblGbt0A6R_D5Wpe92k-59" value="" style="endArrow=classic;html=1;rounded=0;entryX=0.489;entryY=0.026;entryDx=0;entryDy=0;entryPerimeter=0;exitX=0.165;exitY=0.984;exitDx=0;exitDy=0;exitPerimeter=0;" edge="1" parent="1">
          <mxGeometry width="50" height="50" relative="1" as="geometry">
            <mxPoint x="199.92000000000002" y="287" as="sourcePoint" />
            <mxPoint x="199.92000000000002" y="322" as="targetPoint" />
          </mxGeometry>
        </mxCell>
        <mxCell id="MWblGbt0A6R_D5Wpe92k-60" value="" style="endArrow=classic;html=1;rounded=0;entryX=0.489;entryY=0.026;entryDx=0;entryDy=0;entryPerimeter=0;exitX=0.165;exitY=0.984;exitDx=0;exitDy=0;exitPerimeter=0;" edge="1" parent="1">
          <mxGeometry width="50" height="50" relative="1" as="geometry">
            <mxPoint x="259.8" y="287" as="sourcePoint" />
            <mxPoint x="259.8" y="322" as="targetPoint" />
          </mxGeometry>
        </mxCell>
        <mxCell id="MWblGbt0A6R_D5Wpe92k-161" value="" style="shape=table;startSize=0;container=1;collapsible=0;childLayout=tableLayout;fontSize=16;" vertex="1" parent="1">
          <mxGeometry x="670" y="370" width="120" height="80" as="geometry" />
        </mxCell>
        <mxCell id="MWblGbt0A6R_D5Wpe92k-162" style="shape=tableRow;horizontal=0;startSize=0;swimlaneHead=0;swimlaneBody=0;strokeColor=inherit;top=0;left=0;bottom=0;right=0;collapsible=0;dropTarget=0;fillColor=none;points=[[0,0.5],[1,0.5]];portConstraint=eastwest;fontSize=16;" vertex="1" parent="MWblGbt0A6R_D5Wpe92k-161">
          <mxGeometry width="120" height="40" as="geometry" />
        </mxCell>
        <mxCell id="MWblGbt0A6R_D5Wpe92k-163" value="0" style="shape=partialRectangle;html=1;whiteSpace=wrap;connectable=0;strokeColor=inherit;overflow=hidden;fillColor=none;top=0;left=0;bottom=0;right=0;pointerEvents=1;fontSize=16;" vertex="1" parent="MWblGbt0A6R_D5Wpe92k-162">
          <mxGeometry width="40" height="40" as="geometry">
            <mxRectangle width="40" height="40" as="alternateBounds" />
          </mxGeometry>
        </mxCell>
        <mxCell id="MWblGbt0A6R_D5Wpe92k-164" value="0" style="shape=partialRectangle;html=1;whiteSpace=wrap;connectable=0;strokeColor=inherit;overflow=hidden;fillColor=none;top=0;left=0;bottom=0;right=0;pointerEvents=1;fontSize=16;" vertex="1" parent="MWblGbt0A6R_D5Wpe92k-162">
          <mxGeometry x="40" width="40" height="40" as="geometry">
            <mxRectangle width="40" height="40" as="alternateBounds" />
          </mxGeometry>
        </mxCell>
        <mxCell id="MWblGbt0A6R_D5Wpe92k-165" value="1" style="shape=partialRectangle;html=1;whiteSpace=wrap;connectable=0;strokeColor=inherit;overflow=hidden;fillColor=none;top=0;left=0;bottom=0;right=0;pointerEvents=1;fontSize=16;" vertex="1" parent="MWblGbt0A6R_D5Wpe92k-162">
          <mxGeometry x="80" width="40" height="40" as="geometry">
            <mxRectangle width="40" height="40" as="alternateBounds" />
          </mxGeometry>
        </mxCell>
        <mxCell id="MWblGbt0A6R_D5Wpe92k-166" style="shape=tableRow;horizontal=0;startSize=0;swimlaneHead=0;swimlaneBody=0;strokeColor=inherit;top=0;left=0;bottom=0;right=0;collapsible=0;dropTarget=0;fillColor=none;points=[[0,0.5],[1,0.5]];portConstraint=eastwest;fontSize=16;" vertex="1" parent="MWblGbt0A6R_D5Wpe92k-161">
          <mxGeometry y="40" width="120" height="40" as="geometry" />
        </mxCell>
        <mxCell id="MWblGbt0A6R_D5Wpe92k-167" value="1" style="shape=partialRectangle;html=1;whiteSpace=wrap;connectable=0;strokeColor=inherit;overflow=hidden;fillColor=none;top=0;left=0;bottom=0;right=0;pointerEvents=1;fontSize=16;" vertex="1" parent="MWblGbt0A6R_D5Wpe92k-166">
          <mxGeometry width="40" height="40" as="geometry">
            <mxRectangle width="40" height="40" as="alternateBounds" />
          </mxGeometry>
        </mxCell>
        <mxCell id="MWblGbt0A6R_D5Wpe92k-168" value="1" style="shape=partialRectangle;html=1;whiteSpace=wrap;connectable=0;strokeColor=inherit;overflow=hidden;fillColor=none;top=0;left=0;bottom=0;right=0;pointerEvents=1;fontSize=16;" vertex="1" parent="MWblGbt0A6R_D5Wpe92k-166">
          <mxGeometry x="40" width="40" height="40" as="geometry">
            <mxRectangle width="40" height="40" as="alternateBounds" />
          </mxGeometry>
        </mxCell>
        <mxCell id="MWblGbt0A6R_D5Wpe92k-169" value="0" style="shape=partialRectangle;html=1;whiteSpace=wrap;connectable=0;strokeColor=inherit;overflow=hidden;fillColor=none;top=0;left=0;bottom=0;right=0;pointerEvents=1;fontSize=16;" vertex="1" parent="MWblGbt0A6R_D5Wpe92k-166">
          <mxGeometry x="80" width="40" height="40" as="geometry">
            <mxRectangle width="40" height="40" as="alternateBounds" />
          </mxGeometry>
        </mxCell>
        <mxCell id="MWblGbt0A6R_D5Wpe92k-170" value="" style="group" vertex="1" connectable="0" parent="1">
          <mxGeometry x="680" y="340" width="100" height="30" as="geometry" />
        </mxCell>
        <mxCell id="MWblGbt0A6R_D5Wpe92k-171" value="$$x$$" style="text;html=1;strokeColor=none;fillColor=none;align=center;verticalAlign=middle;whiteSpace=wrap;rounded=0;" vertex="1" parent="MWblGbt0A6R_D5Wpe92k-170">
          <mxGeometry width="20" height="30" as="geometry" />
        </mxCell>
        <mxCell id="MWblGbt0A6R_D5Wpe92k-172" value="$$y$$" style="text;html=1;strokeColor=none;fillColor=none;align=center;verticalAlign=middle;whiteSpace=wrap;rounded=0;" vertex="1" parent="MWblGbt0A6R_D5Wpe92k-170">
          <mxGeometry x="40" width="20" height="30" as="geometry" />
        </mxCell>
        <mxCell id="MWblGbt0A6R_D5Wpe92k-173" value="$$z$$" style="text;html=1;strokeColor=none;fillColor=none;align=center;verticalAlign=middle;whiteSpace=wrap;rounded=0;" vertex="1" parent="MWblGbt0A6R_D5Wpe92k-170">
          <mxGeometry x="80" width="20" height="30" as="geometry" />
        </mxCell>
        <mxCell id="MWblGbt0A6R_D5Wpe92k-178" value="" style="group" vertex="1" connectable="0" parent="1">
          <mxGeometry x="354" y="340" width="120" height="110" as="geometry" />
        </mxCell>
        <mxCell id="MWblGbt0A6R_D5Wpe92k-105" value="" style="shape=table;startSize=0;container=1;collapsible=0;childLayout=tableLayout;fontSize=16;" vertex="1" parent="MWblGbt0A6R_D5Wpe92k-178">
          <mxGeometry y="30" width="120" height="80" as="geometry" />
        </mxCell>
        <mxCell id="MWblGbt0A6R_D5Wpe92k-110" style="shape=tableRow;horizontal=0;startSize=0;swimlaneHead=0;swimlaneBody=0;strokeColor=inherit;top=0;left=0;bottom=0;right=0;collapsible=0;dropTarget=0;fillColor=none;points=[[0,0.5],[1,0.5]];portConstraint=eastwest;fontSize=16;" vertex="1" parent="MWblGbt0A6R_D5Wpe92k-105">
          <mxGeometry width="120" height="40" as="geometry" />
        </mxCell>
        <mxCell id="MWblGbt0A6R_D5Wpe92k-111" value="1" style="shape=partialRectangle;html=1;whiteSpace=wrap;connectable=0;strokeColor=inherit;overflow=hidden;fillColor=none;top=0;left=0;bottom=0;right=0;pointerEvents=1;fontSize=16;" vertex="1" parent="MWblGbt0A6R_D5Wpe92k-110">
          <mxGeometry width="40" height="40" as="geometry">
            <mxRectangle width="40" height="40" as="alternateBounds" />
          </mxGeometry>
        </mxCell>
        <mxCell id="MWblGbt0A6R_D5Wpe92k-112" value="0" style="shape=partialRectangle;html=1;whiteSpace=wrap;connectable=0;strokeColor=inherit;overflow=hidden;fillColor=none;top=0;left=0;bottom=0;right=0;pointerEvents=1;fontSize=16;" vertex="1" parent="MWblGbt0A6R_D5Wpe92k-110">
          <mxGeometry x="40" width="40" height="40" as="geometry">
            <mxRectangle width="40" height="40" as="alternateBounds" />
          </mxGeometry>
        </mxCell>
        <mxCell id="MWblGbt0A6R_D5Wpe92k-113" value="0" style="shape=partialRectangle;html=1;whiteSpace=wrap;connectable=0;strokeColor=inherit;overflow=hidden;fillColor=none;top=0;left=0;bottom=0;right=0;pointerEvents=1;fontSize=16;" vertex="1" parent="MWblGbt0A6R_D5Wpe92k-110">
          <mxGeometry x="80" width="40" height="40" as="geometry">
            <mxRectangle width="40" height="40" as="alternateBounds" />
          </mxGeometry>
        </mxCell>
        <mxCell id="MWblGbt0A6R_D5Wpe92k-114" style="shape=tableRow;horizontal=0;startSize=0;swimlaneHead=0;swimlaneBody=0;strokeColor=inherit;top=0;left=0;bottom=0;right=0;collapsible=0;dropTarget=0;fillColor=none;points=[[0,0.5],[1,0.5]];portConstraint=eastwest;fontSize=16;" vertex="1" parent="MWblGbt0A6R_D5Wpe92k-105">
          <mxGeometry y="40" width="120" height="40" as="geometry" />
        </mxCell>
        <mxCell id="MWblGbt0A6R_D5Wpe92k-115" value="0" style="shape=partialRectangle;html=1;whiteSpace=wrap;connectable=0;strokeColor=inherit;overflow=hidden;fillColor=none;top=0;left=0;bottom=0;right=0;pointerEvents=1;fontSize=16;" vertex="1" parent="MWblGbt0A6R_D5Wpe92k-114">
          <mxGeometry width="40" height="40" as="geometry">
            <mxRectangle width="40" height="40" as="alternateBounds" />
          </mxGeometry>
        </mxCell>
        <mxCell id="MWblGbt0A6R_D5Wpe92k-116" value="1" style="shape=partialRectangle;html=1;whiteSpace=wrap;connectable=0;strokeColor=inherit;overflow=hidden;fillColor=none;top=0;left=0;bottom=0;right=0;pointerEvents=1;fontSize=16;" vertex="1" parent="MWblGbt0A6R_D5Wpe92k-114">
          <mxGeometry x="40" width="40" height="40" as="geometry">
            <mxRectangle width="40" height="40" as="alternateBounds" />
          </mxGeometry>
        </mxCell>
        <mxCell id="MWblGbt0A6R_D5Wpe92k-117" value="0" style="shape=partialRectangle;html=1;whiteSpace=wrap;connectable=0;strokeColor=inherit;overflow=hidden;fillColor=none;top=0;left=0;bottom=0;right=0;pointerEvents=1;fontSize=16;" vertex="1" parent="MWblGbt0A6R_D5Wpe92k-114">
          <mxGeometry x="80" width="40" height="40" as="geometry">
            <mxRectangle width="40" height="40" as="alternateBounds" />
          </mxGeometry>
        </mxCell>
        <mxCell id="MWblGbt0A6R_D5Wpe92k-146" value="" style="group" vertex="1" connectable="0" parent="MWblGbt0A6R_D5Wpe92k-178">
          <mxGeometry x="10" width="100" height="30" as="geometry" />
        </mxCell>
        <mxCell id="MWblGbt0A6R_D5Wpe92k-70" value="$$x$$" style="text;html=1;strokeColor=none;fillColor=none;align=center;verticalAlign=middle;whiteSpace=wrap;rounded=0;" vertex="1" parent="MWblGbt0A6R_D5Wpe92k-146">
          <mxGeometry width="20" height="30" as="geometry" />
        </mxCell>
        <mxCell id="MWblGbt0A6R_D5Wpe92k-71" value="$$y$$" style="text;html=1;strokeColor=none;fillColor=none;align=center;verticalAlign=middle;whiteSpace=wrap;rounded=0;" vertex="1" parent="MWblGbt0A6R_D5Wpe92k-146">
          <mxGeometry x="40" width="20" height="30" as="geometry" />
        </mxCell>
        <mxCell id="MWblGbt0A6R_D5Wpe92k-72" value="$$z$$" style="text;html=1;strokeColor=none;fillColor=none;align=center;verticalAlign=middle;whiteSpace=wrap;rounded=0;" vertex="1" parent="MWblGbt0A6R_D5Wpe92k-146">
          <mxGeometry x="80" width="20" height="30" as="geometry" />
        </mxCell>
        <mxCell id="MWblGbt0A6R_D5Wpe92k-179" value="" style="group" vertex="1" connectable="0" parent="1">
          <mxGeometry x="510" y="340" width="120" height="150" as="geometry" />
        </mxCell>
        <mxCell id="MWblGbt0A6R_D5Wpe92k-148" value="" style="shape=table;startSize=0;container=1;collapsible=0;childLayout=tableLayout;fontSize=16;" vertex="1" parent="MWblGbt0A6R_D5Wpe92k-179">
          <mxGeometry y="30" width="120" height="120" as="geometry" />
        </mxCell>
        <mxCell id="MWblGbt0A6R_D5Wpe92k-149" style="shape=tableRow;horizontal=0;startSize=0;swimlaneHead=0;swimlaneBody=0;strokeColor=inherit;top=0;left=0;bottom=0;right=0;collapsible=0;dropTarget=0;fillColor=none;points=[[0,0.5],[1,0.5]];portConstraint=eastwest;fontSize=16;" vertex="1" parent="MWblGbt0A6R_D5Wpe92k-148">
          <mxGeometry width="120" height="40" as="geometry" />
        </mxCell>
        <mxCell id="MWblGbt0A6R_D5Wpe92k-150" value="1" style="shape=partialRectangle;html=1;whiteSpace=wrap;connectable=0;strokeColor=inherit;overflow=hidden;fillColor=none;top=0;left=0;bottom=0;right=0;pointerEvents=1;fontSize=16;" vertex="1" parent="MWblGbt0A6R_D5Wpe92k-149">
          <mxGeometry width="40" height="40" as="geometry">
            <mxRectangle width="40" height="40" as="alternateBounds" />
          </mxGeometry>
        </mxCell>
        <mxCell id="MWblGbt0A6R_D5Wpe92k-151" value="0" style="shape=partialRectangle;html=1;whiteSpace=wrap;connectable=0;strokeColor=inherit;overflow=hidden;fillColor=none;top=0;left=0;bottom=0;right=0;pointerEvents=1;fontSize=16;" vertex="1" parent="MWblGbt0A6R_D5Wpe92k-149">
          <mxGeometry x="40" width="40" height="40" as="geometry">
            <mxRectangle width="40" height="40" as="alternateBounds" />
          </mxGeometry>
        </mxCell>
        <mxCell id="MWblGbt0A6R_D5Wpe92k-152" value="0" style="shape=partialRectangle;html=1;whiteSpace=wrap;connectable=0;strokeColor=inherit;overflow=hidden;fillColor=none;top=0;left=0;bottom=0;right=0;pointerEvents=1;fontSize=16;" vertex="1" parent="MWblGbt0A6R_D5Wpe92k-149">
          <mxGeometry x="80" width="40" height="40" as="geometry">
            <mxRectangle width="40" height="40" as="alternateBounds" />
          </mxGeometry>
        </mxCell>
        <mxCell id="MWblGbt0A6R_D5Wpe92k-153" style="shape=tableRow;horizontal=0;startSize=0;swimlaneHead=0;swimlaneBody=0;strokeColor=inherit;top=0;left=0;bottom=0;right=0;collapsible=0;dropTarget=0;fillColor=none;points=[[0,0.5],[1,0.5]];portConstraint=eastwest;fontSize=16;" vertex="1" parent="MWblGbt0A6R_D5Wpe92k-148">
          <mxGeometry y="40" width="120" height="40" as="geometry" />
        </mxCell>
        <mxCell id="MWblGbt0A6R_D5Wpe92k-154" value="0" style="shape=partialRectangle;html=1;whiteSpace=wrap;connectable=0;strokeColor=inherit;overflow=hidden;fillColor=none;top=0;left=0;bottom=0;right=0;pointerEvents=1;fontSize=16;" vertex="1" parent="MWblGbt0A6R_D5Wpe92k-153">
          <mxGeometry width="40" height="40" as="geometry">
            <mxRectangle width="40" height="40" as="alternateBounds" />
          </mxGeometry>
        </mxCell>
        <mxCell id="MWblGbt0A6R_D5Wpe92k-155" value="1" style="shape=partialRectangle;html=1;whiteSpace=wrap;connectable=0;strokeColor=inherit;overflow=hidden;fillColor=none;top=0;left=0;bottom=0;right=0;pointerEvents=1;fontSize=16;" vertex="1" parent="MWblGbt0A6R_D5Wpe92k-153">
          <mxGeometry x="40" width="40" height="40" as="geometry">
            <mxRectangle width="40" height="40" as="alternateBounds" />
          </mxGeometry>
        </mxCell>
        <mxCell id="MWblGbt0A6R_D5Wpe92k-156" value="0" style="shape=partialRectangle;html=1;whiteSpace=wrap;connectable=0;strokeColor=inherit;overflow=hidden;fillColor=none;top=0;left=0;bottom=0;right=0;pointerEvents=1;fontSize=16;" vertex="1" parent="MWblGbt0A6R_D5Wpe92k-153">
          <mxGeometry x="80" width="40" height="40" as="geometry">
            <mxRectangle width="40" height="40" as="alternateBounds" />
          </mxGeometry>
        </mxCell>
        <mxCell id="MWblGbt0A6R_D5Wpe92k-174" style="shape=tableRow;horizontal=0;startSize=0;swimlaneHead=0;swimlaneBody=0;strokeColor=inherit;top=0;left=0;bottom=0;right=0;collapsible=0;dropTarget=0;fillColor=none;points=[[0,0.5],[1,0.5]];portConstraint=eastwest;fontSize=16;" vertex="1" parent="MWblGbt0A6R_D5Wpe92k-148">
          <mxGeometry y="80" width="120" height="40" as="geometry" />
        </mxCell>
        <mxCell id="MWblGbt0A6R_D5Wpe92k-175" value="1" style="shape=partialRectangle;html=1;whiteSpace=wrap;connectable=0;strokeColor=inherit;overflow=hidden;fillColor=none;top=0;left=0;bottom=0;right=0;pointerEvents=1;fontSize=16;" vertex="1" parent="MWblGbt0A6R_D5Wpe92k-174">
          <mxGeometry width="40" height="40" as="geometry">
            <mxRectangle width="40" height="40" as="alternateBounds" />
          </mxGeometry>
        </mxCell>
        <mxCell id="MWblGbt0A6R_D5Wpe92k-176" value="0" style="shape=partialRectangle;html=1;whiteSpace=wrap;connectable=0;strokeColor=inherit;overflow=hidden;fillColor=none;top=0;left=0;bottom=0;right=0;pointerEvents=1;fontSize=16;" vertex="1" parent="MWblGbt0A6R_D5Wpe92k-174">
          <mxGeometry x="40" width="40" height="40" as="geometry">
            <mxRectangle width="40" height="40" as="alternateBounds" />
          </mxGeometry>
        </mxCell>
        <mxCell id="MWblGbt0A6R_D5Wpe92k-177" value="1" style="shape=partialRectangle;html=1;whiteSpace=wrap;connectable=0;strokeColor=inherit;overflow=hidden;fillColor=none;top=0;left=0;bottom=0;right=0;pointerEvents=1;fontSize=16;" vertex="1" parent="MWblGbt0A6R_D5Wpe92k-174">
          <mxGeometry x="80" width="40" height="40" as="geometry">
            <mxRectangle width="40" height="40" as="alternateBounds" />
          </mxGeometry>
        </mxCell>
        <mxCell id="MWblGbt0A6R_D5Wpe92k-157" value="" style="group" vertex="1" connectable="0" parent="MWblGbt0A6R_D5Wpe92k-179">
          <mxGeometry x="10" width="100" height="30" as="geometry" />
        </mxCell>
        <mxCell id="MWblGbt0A6R_D5Wpe92k-158" value="$$x$$" style="text;html=1;strokeColor=none;fillColor=none;align=center;verticalAlign=middle;whiteSpace=wrap;rounded=0;" vertex="1" parent="MWblGbt0A6R_D5Wpe92k-157">
          <mxGeometry width="20" height="30" as="geometry" />
        </mxCell>
        <mxCell id="MWblGbt0A6R_D5Wpe92k-159" value="$$y$$" style="text;html=1;strokeColor=none;fillColor=none;align=center;verticalAlign=middle;whiteSpace=wrap;rounded=0;" vertex="1" parent="MWblGbt0A6R_D5Wpe92k-157">
          <mxGeometry x="40" width="20" height="30" as="geometry" />
        </mxCell>
        <mxCell id="MWblGbt0A6R_D5Wpe92k-160" value="$$z$$" style="text;html=1;strokeColor=none;fillColor=none;align=center;verticalAlign=middle;whiteSpace=wrap;rounded=0;" vertex="1" parent="MWblGbt0A6R_D5Wpe92k-157">
          <mxGeometry x="80" width="20" height="30" as="geometry" />
        </mxCell>
        <mxCell id="MWblGbt0A6R_D5Wpe92k-180" value="" style="endArrow=classic;html=1;rounded=0;exitX=0.169;exitY=0.996;exitDx=0;exitDy=0;exitPerimeter=0;entryX=1;entryY=0;entryDx=0;entryDy=0;" edge="1" parent="1" source="MWblGbt0A6R_D5Wpe92k-18" target="MWblGbt0A6R_D5Wpe92k-71">
          <mxGeometry width="50" height="50" relative="1" as="geometry">
            <mxPoint x="540" y="470" as="sourcePoint" />
            <mxPoint x="590" y="420" as="targetPoint" />
          </mxGeometry>
        </mxCell>
        <mxCell id="MWblGbt0A6R_D5Wpe92k-181" value="" style="endArrow=classic;html=1;rounded=0;entryX=0.5;entryY=0;entryDx=0;entryDy=0;" edge="1" parent="1" source="MWblGbt0A6R_D5Wpe92k-18" target="MWblGbt0A6R_D5Wpe92k-159">
          <mxGeometry width="50" height="50" relative="1" as="geometry">
            <mxPoint x="540" y="470" as="sourcePoint" />
            <mxPoint x="590" y="420" as="targetPoint" />
          </mxGeometry>
        </mxCell>
        <mxCell id="MWblGbt0A6R_D5Wpe92k-182" value="" style="endArrow=classic;html=1;rounded=0;exitX=0.82;exitY=0.996;exitDx=0;exitDy=0;exitPerimeter=0;entryX=0;entryY=0.25;entryDx=0;entryDy=0;" edge="1" parent="1" source="MWblGbt0A6R_D5Wpe92k-18" target="MWblGbt0A6R_D5Wpe92k-172">
          <mxGeometry width="50" height="50" relative="1" as="geometry">
            <mxPoint x="540" y="470" as="sourcePoint" />
            <mxPoint x="590" y="420" as="targetPoint" />
          </mxGeometry>
        </mxCell>
        <mxCell id="d4jBGMCIFtpbcMSaVpc4-55" value="" style="shape=table;startSize=0;container=1;collapsible=0;childLayout=tableLayout;fontSize=16;" vertex="1" parent="1">
          <mxGeometry x="-199" y="90" width="120" height="400" as="geometry" />
        </mxCell>
        <mxCell id="d4jBGMCIFtpbcMSaVpc4-56" style="shape=tableRow;horizontal=0;startSize=0;swimlaneHead=0;swimlaneBody=0;strokeColor=inherit;top=0;left=0;bottom=0;right=0;collapsible=0;dropTarget=0;fillColor=none;points=[[0,0.5],[1,0.5]];portConstraint=eastwest;fontSize=16;" vertex="1" parent="d4jBGMCIFtpbcMSaVpc4-55">
          <mxGeometry width="120" height="40" as="geometry" />
        </mxCell>
        <mxCell id="d4jBGMCIFtpbcMSaVpc4-57" value="0" style="shape=partialRectangle;html=1;whiteSpace=wrap;connectable=0;strokeColor=inherit;overflow=hidden;fillColor=none;top=0;left=0;bottom=0;right=0;pointerEvents=1;fontSize=16;" vertex="1" parent="d4jBGMCIFtpbcMSaVpc4-56">
          <mxGeometry width="40" height="40" as="geometry">
            <mxRectangle width="40" height="40" as="alternateBounds" />
          </mxGeometry>
        </mxCell>
        <mxCell id="d4jBGMCIFtpbcMSaVpc4-58" value="0" style="shape=partialRectangle;html=1;whiteSpace=wrap;connectable=0;strokeColor=inherit;overflow=hidden;fillColor=none;top=0;left=0;bottom=0;right=0;pointerEvents=1;fontSize=16;" vertex="1" parent="d4jBGMCIFtpbcMSaVpc4-56">
          <mxGeometry x="40" width="40" height="40" as="geometry">
            <mxRectangle width="40" height="40" as="alternateBounds" />
          </mxGeometry>
        </mxCell>
        <mxCell id="d4jBGMCIFtpbcMSaVpc4-59" value="0" style="shape=partialRectangle;html=1;whiteSpace=wrap;connectable=0;strokeColor=inherit;overflow=hidden;fillColor=none;top=0;left=0;bottom=0;right=0;pointerEvents=1;fontSize=16;" vertex="1" parent="d4jBGMCIFtpbcMSaVpc4-56">
          <mxGeometry x="80" width="40" height="40" as="geometry">
            <mxRectangle width="40" height="40" as="alternateBounds" />
          </mxGeometry>
        </mxCell>
        <mxCell id="d4jBGMCIFtpbcMSaVpc4-60" style="shape=tableRow;horizontal=0;startSize=0;swimlaneHead=0;swimlaneBody=0;strokeColor=inherit;top=0;left=0;bottom=0;right=0;collapsible=0;dropTarget=0;fillColor=none;points=[[0,0.5],[1,0.5]];portConstraint=eastwest;fontSize=16;" vertex="1" parent="d4jBGMCIFtpbcMSaVpc4-55">
          <mxGeometry y="40" width="120" height="40" as="geometry" />
        </mxCell>
        <mxCell id="d4jBGMCIFtpbcMSaVpc4-61" value="1" style="shape=partialRectangle;html=1;whiteSpace=wrap;connectable=0;strokeColor=inherit;overflow=hidden;fillColor=none;top=0;left=0;bottom=0;right=0;pointerEvents=1;fontSize=16;" vertex="1" parent="d4jBGMCIFtpbcMSaVpc4-60">
          <mxGeometry width="40" height="40" as="geometry">
            <mxRectangle width="40" height="40" as="alternateBounds" />
          </mxGeometry>
        </mxCell>
        <mxCell id="d4jBGMCIFtpbcMSaVpc4-62" value="0" style="shape=partialRectangle;html=1;whiteSpace=wrap;connectable=0;strokeColor=inherit;overflow=hidden;fillColor=none;top=0;left=0;bottom=0;right=0;pointerEvents=1;fontSize=16;" vertex="1" parent="d4jBGMCIFtpbcMSaVpc4-60">
          <mxGeometry x="40" width="40" height="40" as="geometry">
            <mxRectangle width="40" height="40" as="alternateBounds" />
          </mxGeometry>
        </mxCell>
        <mxCell id="d4jBGMCIFtpbcMSaVpc4-63" value="0" style="shape=partialRectangle;html=1;whiteSpace=wrap;connectable=0;strokeColor=inherit;overflow=hidden;fillColor=none;top=0;left=0;bottom=0;right=0;pointerEvents=1;fontSize=16;" vertex="1" parent="d4jBGMCIFtpbcMSaVpc4-60">
          <mxGeometry x="80" width="40" height="40" as="geometry">
            <mxRectangle width="40" height="40" as="alternateBounds" />
          </mxGeometry>
        </mxCell>
        <mxCell id="d4jBGMCIFtpbcMSaVpc4-64" style="shape=tableRow;horizontal=0;startSize=0;swimlaneHead=0;swimlaneBody=0;strokeColor=inherit;top=0;left=0;bottom=0;right=0;collapsible=0;dropTarget=0;fillColor=none;points=[[0,0.5],[1,0.5]];portConstraint=eastwest;fontSize=16;" vertex="1" parent="d4jBGMCIFtpbcMSaVpc4-55">
          <mxGeometry y="80" width="120" height="40" as="geometry" />
        </mxCell>
        <mxCell id="d4jBGMCIFtpbcMSaVpc4-65" value="0" style="shape=partialRectangle;html=1;whiteSpace=wrap;connectable=0;strokeColor=inherit;overflow=hidden;fillColor=none;top=0;left=0;bottom=0;right=0;pointerEvents=1;fontSize=16;" vertex="1" parent="d4jBGMCIFtpbcMSaVpc4-64">
          <mxGeometry width="40" height="40" as="geometry">
            <mxRectangle width="40" height="40" as="alternateBounds" />
          </mxGeometry>
        </mxCell>
        <mxCell id="d4jBGMCIFtpbcMSaVpc4-66" value="1" style="shape=partialRectangle;html=1;whiteSpace=wrap;connectable=0;strokeColor=inherit;overflow=hidden;fillColor=none;top=0;left=0;bottom=0;right=0;pointerEvents=1;fontSize=16;" vertex="1" parent="d4jBGMCIFtpbcMSaVpc4-64">
          <mxGeometry x="40" width="40" height="40" as="geometry">
            <mxRectangle width="40" height="40" as="alternateBounds" />
          </mxGeometry>
        </mxCell>
        <mxCell id="d4jBGMCIFtpbcMSaVpc4-67" value="0" style="shape=partialRectangle;html=1;whiteSpace=wrap;connectable=0;strokeColor=inherit;overflow=hidden;fillColor=none;top=0;left=0;bottom=0;right=0;pointerEvents=1;fontSize=16;" vertex="1" parent="d4jBGMCIFtpbcMSaVpc4-64">
          <mxGeometry x="80" width="40" height="40" as="geometry">
            <mxRectangle width="40" height="40" as="alternateBounds" />
          </mxGeometry>
        </mxCell>
        <mxCell id="d4jBGMCIFtpbcMSaVpc4-68" value="" style="shape=tableRow;horizontal=0;startSize=0;swimlaneHead=0;swimlaneBody=0;strokeColor=inherit;top=0;left=0;bottom=0;right=0;collapsible=0;dropTarget=0;fillColor=none;points=[[0,0.5],[1,0.5]];portConstraint=eastwest;fontSize=16;" vertex="1" parent="d4jBGMCIFtpbcMSaVpc4-55">
          <mxGeometry y="120" width="120" height="40" as="geometry" />
        </mxCell>
        <mxCell id="d4jBGMCIFtpbcMSaVpc4-69" value="0" style="shape=partialRectangle;html=1;whiteSpace=wrap;connectable=0;strokeColor=inherit;overflow=hidden;fillColor=none;top=0;left=0;bottom=0;right=0;pointerEvents=1;fontSize=16;" vertex="1" parent="d4jBGMCIFtpbcMSaVpc4-68">
          <mxGeometry width="40" height="40" as="geometry">
            <mxRectangle width="40" height="40" as="alternateBounds" />
          </mxGeometry>
        </mxCell>
        <mxCell id="d4jBGMCIFtpbcMSaVpc4-70" value="0" style="shape=partialRectangle;html=1;whiteSpace=wrap;connectable=0;strokeColor=inherit;overflow=hidden;fillColor=none;top=0;left=0;bottom=0;right=0;pointerEvents=1;fontSize=16;" vertex="1" parent="d4jBGMCIFtpbcMSaVpc4-68">
          <mxGeometry x="40" width="40" height="40" as="geometry">
            <mxRectangle width="40" height="40" as="alternateBounds" />
          </mxGeometry>
        </mxCell>
        <mxCell id="d4jBGMCIFtpbcMSaVpc4-71" value="1" style="shape=partialRectangle;html=1;whiteSpace=wrap;connectable=0;strokeColor=inherit;overflow=hidden;fillColor=none;top=0;left=0;bottom=0;right=0;pointerEvents=1;fontSize=16;" vertex="1" parent="d4jBGMCIFtpbcMSaVpc4-68">
          <mxGeometry x="80" width="40" height="40" as="geometry">
            <mxRectangle width="40" height="40" as="alternateBounds" />
          </mxGeometry>
        </mxCell>
        <mxCell id="d4jBGMCIFtpbcMSaVpc4-72" style="shape=tableRow;horizontal=0;startSize=0;swimlaneHead=0;swimlaneBody=0;strokeColor=inherit;top=0;left=0;bottom=0;right=0;collapsible=0;dropTarget=0;fillColor=none;points=[[0,0.5],[1,0.5]];portConstraint=eastwest;fontSize=16;" vertex="1" parent="d4jBGMCIFtpbcMSaVpc4-55">
          <mxGeometry y="160" width="120" height="40" as="geometry" />
        </mxCell>
        <mxCell id="d4jBGMCIFtpbcMSaVpc4-73" value="2" style="shape=partialRectangle;html=1;whiteSpace=wrap;connectable=0;strokeColor=inherit;overflow=hidden;fillColor=none;top=0;left=0;bottom=0;right=0;pointerEvents=1;fontSize=16;" vertex="1" parent="d4jBGMCIFtpbcMSaVpc4-72">
          <mxGeometry width="40" height="40" as="geometry">
            <mxRectangle width="40" height="40" as="alternateBounds" />
          </mxGeometry>
        </mxCell>
        <mxCell id="d4jBGMCIFtpbcMSaVpc4-74" value="0" style="shape=partialRectangle;html=1;whiteSpace=wrap;connectable=0;strokeColor=inherit;overflow=hidden;fillColor=none;top=0;left=0;bottom=0;right=0;pointerEvents=1;fontSize=16;" vertex="1" parent="d4jBGMCIFtpbcMSaVpc4-72">
          <mxGeometry x="40" width="40" height="40" as="geometry">
            <mxRectangle width="40" height="40" as="alternateBounds" />
          </mxGeometry>
        </mxCell>
        <mxCell id="d4jBGMCIFtpbcMSaVpc4-75" value="0" style="shape=partialRectangle;html=1;whiteSpace=wrap;connectable=0;strokeColor=inherit;overflow=hidden;fillColor=none;top=0;left=0;bottom=0;right=0;pointerEvents=1;fontSize=16;" vertex="1" parent="d4jBGMCIFtpbcMSaVpc4-72">
          <mxGeometry x="80" width="40" height="40" as="geometry">
            <mxRectangle width="40" height="40" as="alternateBounds" />
          </mxGeometry>
        </mxCell>
        <mxCell id="d4jBGMCIFtpbcMSaVpc4-76" style="shape=tableRow;horizontal=0;startSize=0;swimlaneHead=0;swimlaneBody=0;strokeColor=inherit;top=0;left=0;bottom=0;right=0;collapsible=0;dropTarget=0;fillColor=none;points=[[0,0.5],[1,0.5]];portConstraint=eastwest;fontSize=16;" vertex="1" parent="d4jBGMCIFtpbcMSaVpc4-55">
          <mxGeometry y="200" width="120" height="40" as="geometry" />
        </mxCell>
        <mxCell id="d4jBGMCIFtpbcMSaVpc4-77" value="1" style="shape=partialRectangle;html=1;whiteSpace=wrap;connectable=0;strokeColor=inherit;overflow=hidden;fillColor=none;top=0;left=0;bottom=0;right=0;pointerEvents=1;fontSize=16;" vertex="1" parent="d4jBGMCIFtpbcMSaVpc4-76">
          <mxGeometry width="40" height="40" as="geometry">
            <mxRectangle width="40" height="40" as="alternateBounds" />
          </mxGeometry>
        </mxCell>
        <mxCell id="d4jBGMCIFtpbcMSaVpc4-78" value="1" style="shape=partialRectangle;html=1;whiteSpace=wrap;connectable=0;strokeColor=inherit;overflow=hidden;fillColor=none;top=0;left=0;bottom=0;right=0;pointerEvents=1;fontSize=16;" vertex="1" parent="d4jBGMCIFtpbcMSaVpc4-76">
          <mxGeometry x="40" width="40" height="40" as="geometry">
            <mxRectangle width="40" height="40" as="alternateBounds" />
          </mxGeometry>
        </mxCell>
        <mxCell id="d4jBGMCIFtpbcMSaVpc4-79" value="0" style="shape=partialRectangle;html=1;whiteSpace=wrap;connectable=0;strokeColor=inherit;overflow=hidden;fillColor=none;top=0;left=0;bottom=0;right=0;pointerEvents=1;fontSize=16;" vertex="1" parent="d4jBGMCIFtpbcMSaVpc4-76">
          <mxGeometry x="80" width="40" height="40" as="geometry">
            <mxRectangle width="40" height="40" as="alternateBounds" />
          </mxGeometry>
        </mxCell>
        <mxCell id="d4jBGMCIFtpbcMSaVpc4-80" style="shape=tableRow;horizontal=0;startSize=0;swimlaneHead=0;swimlaneBody=0;strokeColor=inherit;top=0;left=0;bottom=0;right=0;collapsible=0;dropTarget=0;fillColor=none;points=[[0,0.5],[1,0.5]];portConstraint=eastwest;fontSize=16;" vertex="1" parent="d4jBGMCIFtpbcMSaVpc4-55">
          <mxGeometry y="240" width="120" height="40" as="geometry" />
        </mxCell>
        <mxCell id="d4jBGMCIFtpbcMSaVpc4-81" value="1" style="shape=partialRectangle;html=1;whiteSpace=wrap;connectable=0;strokeColor=inherit;overflow=hidden;fillColor=none;top=0;left=0;bottom=0;right=0;pointerEvents=1;fontSize=16;" vertex="1" parent="d4jBGMCIFtpbcMSaVpc4-80">
          <mxGeometry width="40" height="40" as="geometry">
            <mxRectangle width="40" height="40" as="alternateBounds" />
          </mxGeometry>
        </mxCell>
        <mxCell id="d4jBGMCIFtpbcMSaVpc4-82" value="0" style="shape=partialRectangle;html=1;whiteSpace=wrap;connectable=0;strokeColor=inherit;overflow=hidden;fillColor=none;top=0;left=0;bottom=0;right=0;pointerEvents=1;fontSize=16;" vertex="1" parent="d4jBGMCIFtpbcMSaVpc4-80">
          <mxGeometry x="40" width="40" height="40" as="geometry">
            <mxRectangle width="40" height="40" as="alternateBounds" />
          </mxGeometry>
        </mxCell>
        <mxCell id="d4jBGMCIFtpbcMSaVpc4-83" value="1" style="shape=partialRectangle;html=1;whiteSpace=wrap;connectable=0;strokeColor=inherit;overflow=hidden;fillColor=none;top=0;left=0;bottom=0;right=0;pointerEvents=1;fontSize=16;" vertex="1" parent="d4jBGMCIFtpbcMSaVpc4-80">
          <mxGeometry x="80" width="40" height="40" as="geometry">
            <mxRectangle width="40" height="40" as="alternateBounds" />
          </mxGeometry>
        </mxCell>
        <mxCell id="d4jBGMCIFtpbcMSaVpc4-84" style="shape=tableRow;horizontal=0;startSize=0;swimlaneHead=0;swimlaneBody=0;strokeColor=inherit;top=0;left=0;bottom=0;right=0;collapsible=0;dropTarget=0;fillColor=none;points=[[0,0.5],[1,0.5]];portConstraint=eastwest;fontSize=16;" vertex="1" parent="d4jBGMCIFtpbcMSaVpc4-55">
          <mxGeometry y="280" width="120" height="40" as="geometry" />
        </mxCell>
        <mxCell id="d4jBGMCIFtpbcMSaVpc4-85" value="0" style="shape=partialRectangle;html=1;whiteSpace=wrap;connectable=0;strokeColor=inherit;overflow=hidden;fillColor=none;top=0;left=0;bottom=0;right=0;pointerEvents=1;fontSize=16;" vertex="1" parent="d4jBGMCIFtpbcMSaVpc4-84">
          <mxGeometry width="40" height="40" as="geometry">
            <mxRectangle width="40" height="40" as="alternateBounds" />
          </mxGeometry>
        </mxCell>
        <mxCell id="d4jBGMCIFtpbcMSaVpc4-86" value="2" style="shape=partialRectangle;html=1;whiteSpace=wrap;connectable=0;strokeColor=inherit;overflow=hidden;fillColor=none;top=0;left=0;bottom=0;right=0;pointerEvents=1;fontSize=16;" vertex="1" parent="d4jBGMCIFtpbcMSaVpc4-84">
          <mxGeometry x="40" width="40" height="40" as="geometry">
            <mxRectangle width="40" height="40" as="alternateBounds" />
          </mxGeometry>
        </mxCell>
        <mxCell id="d4jBGMCIFtpbcMSaVpc4-87" value="0" style="shape=partialRectangle;html=1;whiteSpace=wrap;connectable=0;strokeColor=inherit;overflow=hidden;fillColor=none;top=0;left=0;bottom=0;right=0;pointerEvents=1;fontSize=16;" vertex="1" parent="d4jBGMCIFtpbcMSaVpc4-84">
          <mxGeometry x="80" width="40" height="40" as="geometry">
            <mxRectangle width="40" height="40" as="alternateBounds" />
          </mxGeometry>
        </mxCell>
        <mxCell id="d4jBGMCIFtpbcMSaVpc4-88" style="shape=tableRow;horizontal=0;startSize=0;swimlaneHead=0;swimlaneBody=0;strokeColor=inherit;top=0;left=0;bottom=0;right=0;collapsible=0;dropTarget=0;fillColor=none;points=[[0,0.5],[1,0.5]];portConstraint=eastwest;fontSize=16;" vertex="1" parent="d4jBGMCIFtpbcMSaVpc4-55">
          <mxGeometry y="320" width="120" height="40" as="geometry" />
        </mxCell>
        <mxCell id="d4jBGMCIFtpbcMSaVpc4-89" value="0" style="shape=partialRectangle;html=1;whiteSpace=wrap;connectable=0;strokeColor=inherit;overflow=hidden;fillColor=none;top=0;left=0;bottom=0;right=0;pointerEvents=1;fontSize=16;" vertex="1" parent="d4jBGMCIFtpbcMSaVpc4-88">
          <mxGeometry width="40" height="40" as="geometry">
            <mxRectangle width="40" height="40" as="alternateBounds" />
          </mxGeometry>
        </mxCell>
        <mxCell id="d4jBGMCIFtpbcMSaVpc4-90" value="1" style="shape=partialRectangle;html=1;whiteSpace=wrap;connectable=0;strokeColor=inherit;overflow=hidden;fillColor=none;top=0;left=0;bottom=0;right=0;pointerEvents=1;fontSize=16;" vertex="1" parent="d4jBGMCIFtpbcMSaVpc4-88">
          <mxGeometry x="40" width="40" height="40" as="geometry">
            <mxRectangle width="40" height="40" as="alternateBounds" />
          </mxGeometry>
        </mxCell>
        <mxCell id="d4jBGMCIFtpbcMSaVpc4-91" value="1" style="shape=partialRectangle;html=1;whiteSpace=wrap;connectable=0;strokeColor=inherit;overflow=hidden;fillColor=none;top=0;left=0;bottom=0;right=0;pointerEvents=1;fontSize=16;" vertex="1" parent="d4jBGMCIFtpbcMSaVpc4-88">
          <mxGeometry x="80" width="40" height="40" as="geometry">
            <mxRectangle width="40" height="40" as="alternateBounds" />
          </mxGeometry>
        </mxCell>
        <mxCell id="d4jBGMCIFtpbcMSaVpc4-92" style="shape=tableRow;horizontal=0;startSize=0;swimlaneHead=0;swimlaneBody=0;strokeColor=inherit;top=0;left=0;bottom=0;right=0;collapsible=0;dropTarget=0;fillColor=none;points=[[0,0.5],[1,0.5]];portConstraint=eastwest;fontSize=16;" vertex="1" parent="d4jBGMCIFtpbcMSaVpc4-55">
          <mxGeometry y="360" width="120" height="40" as="geometry" />
        </mxCell>
        <mxCell id="d4jBGMCIFtpbcMSaVpc4-93" value="0" style="shape=partialRectangle;html=1;whiteSpace=wrap;connectable=0;strokeColor=inherit;overflow=hidden;fillColor=none;top=0;left=0;bottom=0;right=0;pointerEvents=1;fontSize=16;" vertex="1" parent="d4jBGMCIFtpbcMSaVpc4-92">
          <mxGeometry width="40" height="40" as="geometry">
            <mxRectangle width="40" height="40" as="alternateBounds" />
          </mxGeometry>
        </mxCell>
        <mxCell id="d4jBGMCIFtpbcMSaVpc4-94" value="0" style="shape=partialRectangle;html=1;whiteSpace=wrap;connectable=0;strokeColor=inherit;overflow=hidden;fillColor=none;top=0;left=0;bottom=0;right=0;pointerEvents=1;fontSize=16;" vertex="1" parent="d4jBGMCIFtpbcMSaVpc4-92">
          <mxGeometry x="40" width="40" height="40" as="geometry">
            <mxRectangle width="40" height="40" as="alternateBounds" />
          </mxGeometry>
        </mxCell>
        <mxCell id="d4jBGMCIFtpbcMSaVpc4-95" value="2" style="shape=partialRectangle;html=1;whiteSpace=wrap;connectable=0;strokeColor=inherit;overflow=hidden;fillColor=none;top=0;left=0;bottom=0;right=0;pointerEvents=1;fontSize=16;" vertex="1" parent="d4jBGMCIFtpbcMSaVpc4-92">
          <mxGeometry x="80" width="40" height="40" as="geometry">
            <mxRectangle width="40" height="40" as="alternateBounds" />
          </mxGeometry>
        </mxCell>
        <mxCell id="d4jBGMCIFtpbcMSaVpc4-96" value="$$x$$" style="text;html=1;strokeColor=none;fillColor=none;align=center;verticalAlign=middle;whiteSpace=wrap;rounded=0;" vertex="1" parent="1">
          <mxGeometry x="-189" y="60" width="20" height="30" as="geometry" />
        </mxCell>
        <mxCell id="d4jBGMCIFtpbcMSaVpc4-97" value="$$y$$" style="text;html=1;strokeColor=none;fillColor=none;align=center;verticalAlign=middle;whiteSpace=wrap;rounded=0;" vertex="1" parent="1">
          <mxGeometry x="-149" y="60" width="20" height="30" as="geometry" />
        </mxCell>
        <mxCell id="d4jBGMCIFtpbcMSaVpc4-98" value="$$z$$" style="text;html=1;strokeColor=none;fillColor=none;align=center;verticalAlign=middle;whiteSpace=wrap;rounded=0;" vertex="1" parent="1">
          <mxGeometry x="-109" y="60" width="20" height="30" as="geometry" />
        </mxCell>
        <mxCell id="d4jBGMCIFtpbcMSaVpc4-99" value="$$1$$" style="text;html=1;strokeColor=none;fillColor=none;align=center;verticalAlign=middle;whiteSpace=wrap;rounded=0;" vertex="1" parent="1">
          <mxGeometry x="-219" y="90" width="20" height="40" as="geometry" />
        </mxCell>
        <mxCell id="d4jBGMCIFtpbcMSaVpc4-100" value="$$x$$" style="text;html=1;strokeColor=none;fillColor=none;align=center;verticalAlign=middle;whiteSpace=wrap;rounded=0;" vertex="1" parent="1">
          <mxGeometry x="-219" y="130" width="20" height="40" as="geometry" />
        </mxCell>
        <mxCell id="d4jBGMCIFtpbcMSaVpc4-101" value="$$y$$" style="text;html=1;strokeColor=none;fillColor=none;align=center;verticalAlign=middle;whiteSpace=wrap;rounded=0;" vertex="1" parent="1">
          <mxGeometry x="-219" y="170" width="20" height="40" as="geometry" />
        </mxCell>
        <mxCell id="d4jBGMCIFtpbcMSaVpc4-102" value="$$z$$" style="text;html=1;strokeColor=none;fillColor=none;align=center;verticalAlign=middle;whiteSpace=wrap;rounded=0;" vertex="1" parent="1">
          <mxGeometry x="-219" y="210" width="20" height="40" as="geometry" />
        </mxCell>
        <mxCell id="d4jBGMCIFtpbcMSaVpc4-103" value="$$x^2$$" style="text;html=1;strokeColor=none;fillColor=none;align=center;verticalAlign=middle;whiteSpace=wrap;rounded=0;" vertex="1" parent="1">
          <mxGeometry x="-219" y="250" width="20" height="40" as="geometry" />
        </mxCell>
        <mxCell id="d4jBGMCIFtpbcMSaVpc4-104" value="$$xy$$" style="text;html=1;strokeColor=none;fillColor=none;align=center;verticalAlign=middle;whiteSpace=wrap;rounded=0;" vertex="1" parent="1">
          <mxGeometry x="-219" y="290" width="20" height="40" as="geometry" />
        </mxCell>
        <mxCell id="d4jBGMCIFtpbcMSaVpc4-105" value="$$y^2$$" style="text;html=1;strokeColor=none;fillColor=none;align=center;verticalAlign=middle;whiteSpace=wrap;rounded=0;" vertex="1" parent="1">
          <mxGeometry x="-219" y="370" width="20" height="40" as="geometry" />
        </mxCell>
        <mxCell id="d4jBGMCIFtpbcMSaVpc4-106" value="$$yz$$" style="text;html=1;strokeColor=none;fillColor=none;align=center;verticalAlign=middle;whiteSpace=wrap;rounded=0;" vertex="1" parent="1">
          <mxGeometry x="-219" y="410" width="20" height="40" as="geometry" />
        </mxCell>
        <mxCell id="d4jBGMCIFtpbcMSaVpc4-107" value="$$z^2$$" style="text;html=1;strokeColor=none;fillColor=none;align=center;verticalAlign=middle;whiteSpace=wrap;rounded=0;" vertex="1" parent="1">
          <mxGeometry x="-219" y="450" width="20" height="40" as="geometry" />
        </mxCell>
        <mxCell id="d4jBGMCIFtpbcMSaVpc4-108" value="$$xz$$" style="text;html=1;strokeColor=none;fillColor=none;align=center;verticalAlign=middle;whiteSpace=wrap;rounded=0;" vertex="1" parent="1">
          <mxGeometry x="-219" y="330" width="20" height="40" as="geometry" />
        </mxCell>
        <mxCell id="d4jBGMCIFtpbcMSaVpc4-109" value="Degree-lexicographic ordering" style="text;html=1;strokeColor=none;fillColor=none;align=center;verticalAlign=middle;whiteSpace=wrap;rounded=0;fontSize=14;" vertex="1" parent="1">
          <mxGeometry x="-213.5" y="25" width="149" height="30" as="geometry" />
        </mxCell>
        <mxCell id="d4jBGMCIFtpbcMSaVpc4-110" value="deglexord(0,2,3)&amp;nbsp;" style="text;html=1;strokeColor=none;fillColor=#f5f5f5;align=center;verticalAlign=middle;whiteSpace=wrap;rounded=0;fontFamily=Lucida Console;fontColor=#333333;" vertex="1" parent="1">
          <mxGeometry x="-430" y="290" width="129" height="25" as="geometry" />
        </mxCell>
        <mxCell id="d4jBGMCIFtpbcMSaVpc4-113" value="" style="shape=flexArrow;endArrow=classic;html=1;rounded=0;endWidth=18.571428571428573;endSize=8.014285714285716;width=12.857142857142858;" edge="1" parent="1">
          <mxGeometry width="50" height="50" relative="1" as="geometry">
            <mxPoint x="-290" y="300" as="sourcePoint" />
            <mxPoint x="-240" y="300" as="targetPoint" />
          </mxGeometry>
        </mxCell>
        <mxCell id="d4jBGMCIFtpbcMSaVpc4-115" value="" style="endArrow=classic;html=1;rounded=0;entryX=1;entryY=0;entryDx=0;entryDy=0;exitX=0;exitY=1;exitDx=0;exitDy=0;" edge="1" parent="1" source="MWblGbt0A6R_D5Wpe92k-3" target="MWblGbt0A6R_D5Wpe92k-24">
          <mxGeometry width="50" height="50" relative="1" as="geometry">
            <mxPoint x="290" y="190" as="sourcePoint" />
            <mxPoint x="340" y="140" as="targetPoint" />
          </mxGeometry>
        </mxCell>
        <mxCell id="d4jBGMCIFtpbcMSaVpc4-117" value="" style="endArrow=classic;html=1;rounded=0;entryX=0;entryY=0;entryDx=0;entryDy=0;exitX=1;exitY=1;exitDx=0;exitDy=0;" edge="1" parent="1" source="MWblGbt0A6R_D5Wpe92k-3" target="MWblGbt0A6R_D5Wpe92k-30">
          <mxGeometry width="50" height="50" relative="1" as="geometry">
            <mxPoint x="290" y="190" as="sourcePoint" />
            <mxPoint x="340" y="140" as="targetPoint" />
          </mxGeometry>
        </mxCell>
      </root>
    </mxGraphModel>
  </diagram>
</mxfile>
